<svg xmlns="http://www.w3.org/2000/svg" xmlns:xlink="http://www.w3.org/1999/xlink" class="main-svg" width="1121" height="526"><rect x="0" y="0" width="1121" height="526" style="fill: rgb(255, 255, 255); fill-opacity: 1;"/><defs id="defs-def306"><g class="clips"><clipPath class="axesclip" id="clipdef306x"><rect x="80" y="0" width="929" height="526"/></clipPath><clipPath class="axesclip" id="clipdef306y"><rect x="0" y="100" width="1121" height="346"/></clipPath><clipPath class="axesclip" id="clipdef306xy"><rect x="80" y="100" width="929" height="346"/></clipPath></g></defs><g class="draglayer"><g transform="translate(80,100)"/></g><g class="subplot xy"><rect x="80" y="100" width="929" height="346" style="stroke-width: 0px; fill: rgb(255, 255, 255); fill-opacity: 1;"/><g transform="translate(80,100)"><path class="xgrid crisp" d="M0,0v346" transform="translate(108.05,0)" style="stroke: rgb(238, 238, 238); stroke-opacity: 1; stroke-width: 1px;"/><path class="xgrid crisp" d="M0,0v346" transform="translate(216.1,0)" style="stroke: rgb(238, 238, 238); stroke-opacity: 1; stroke-width: 1px;"/><path class="xgrid crisp" d="M0,0v346" transform="translate(324.15,0)" style="stroke: rgb(238, 238, 238); stroke-opacity: 1; stroke-width: 1px;"/><path class="xgrid crisp" d="M0,0v346" transform="translate(432.19,0)" style="stroke: rgb(238, 238, 238); stroke-opacity: 1; stroke-width: 1px;"/><path class="xgrid crisp" d="M0,0v346" transform="translate(540.24,0)" style="stroke: rgb(238, 238, 238); stroke-opacity: 1; stroke-width: 1px;"/><path class="xgrid crisp" d="M0,0v346" transform="translate(648.29,0)" style="stroke: rgb(238, 238, 238); stroke-opacity: 1; stroke-width: 1px;"/><path class="xgrid crisp" d="M0,0v346" transform="translate(756.34,0)" style="stroke: rgb(238, 238, 238); stroke-opacity: 1; stroke-width: 1px;"/><path class="xgrid crisp" d="M0,0v346" transform="translate(864.39,0)" style="stroke: rgb(238, 238, 238); stroke-opacity: 1; stroke-width: 1px;"/><path class="ygrid crisp" d="M0,0h929" transform="translate(0,325.91)" style="stroke: rgb(238, 238, 238); stroke-opacity: 1; stroke-width: 1px;"/><path class="ygrid crisp" d="M0,0h929" transform="translate(0,257.29)" style="stroke: rgb(238, 238, 238); stroke-opacity: 1; stroke-width: 1px;"/><path class="ygrid crisp" d="M0,0h929" transform="translate(0,188.67)" style="stroke: rgb(238, 238, 238); stroke-opacity: 1; stroke-width: 1px;"/><path class="ygrid crisp" d="M0,0h929" transform="translate(0,120.05)" style="stroke: rgb(238, 238, 238); stroke-opacity: 1; stroke-width: 1px;"/><path class="ygrid crisp" d="M0,0h929" transform="translate(0,51.43)" style="stroke: rgb(238, 238, 238); stroke-opacity: 1; stroke-width: 1px;"/></g><g/><g transform="translate(80,100)"><path class="xzl zl crisp" d="M0,0v346" transform="translate(0,0)" style="stroke: rgb(68, 68, 68); stroke-opacity: 1; stroke-width: 1px;"/></g><g/><svg preserveAspectRatio="none" x="80" y="100" width="929" height="346" viewBox="0 0 929 346" style="fill: none;"><g class="maplayer"/><g class="barlayer"/><g class="errorlayer"><g class="errorbars"/><g class="errorbars"/><g class="errorbars"/><g class="errorbars"/><g class="errorbars"/><g class="errorbars"/></g><g class="boxlayer"/><g class="scatterlayer"><g class="trace scatter" style="stroke-miterlimit: 2; opacity: 1;"><path class="js-line" d="M0,39.71L10.78,25.22L54,26.92L65.02,27.21L75.85,32.47L86.42,26.92L97.44,36.03L108.24,30.64L119.07,36.07L129.42,17.3L172.86,32.43L183.9,27.21L194.49,26.92L216.29,32.5L237.68,30.56L248.71,25.4L259.32,30.56L281.12,36.03L302.51,32.43L313.56,27.21L324.12,32.43L345.73,17.65L378.15,28.79L388.97,25.22L410.56,32.47L421.58,29L443,26.92L453.78,23.36L507.81,32.47L529.42,26.92L540.46,27.21L551.03,32.43L562.05,27.21L583.66,46.95L605.07,328.7L615.85,271.43L626.9,281.51L637.49,195.01L648.27,262.87L659.31,260.32L669.9,268.91L680.68,103.42L691.7,36.03L702.29,25.04L734.73,78.39L745.51,263.53L756.55,62.53L767.12,32.43L778.14,67.99L810.58,75.91L821.15,43.42L831.97,30.64L842.76,57.58L853.78,59.24L864.6,264.19L875.17,262.19L886.19,103.49L897,299.92L907.8,314.88L929,41.78" style="fill: none; stroke: rgb(31, 119, 180); stroke-opacity: 1; stroke-width: 2px;"/></g><g class="trace scatter" style="stroke-miterlimit: 2; opacity: 1;"><path class="js-line" d="M0,39.71L10.78,27.21L54,32.47L65.02,32.5L75.85,36.1L86.42,23.57L97.44,32.47L108.24,30.71L119.07,32.47L172.86,32.47L183.9,28.9L194.49,30.56L216.29,36.07L237.68,23.36L248.71,36.07L259.32,32.47L281.12,36.07L302.51,32.47L313.56,28.9L324.12,23.36L345.73,36.07L378.15,36.07L388.97,25.22L410.56,32.47L421.58,32.47L443,36.07L453.78,32.47L507.81,32.47L529.42,43.42L540.46,29L551.03,32.47L562.05,32.47L583.66,36.07L605.07,32.47L615.85,32.47L626.9,28.9L637.49,32.47L648.27,25.04L659.31,32.47L669.9,36.07L680.68,21.73L691.7,32.47L702.29,36.07L734.73,25.22L745.51,89.29L756.55,256.95L767.12,248.98L778.14,222.47L810.58,184.53L821.15,271.43L831.97,272.66L842.76,292.13L853.78,75.91L864.6,25.22L875.17,37.84L886.19,32.47L897,209.97L907.8,30.64L929,43.24" style="fill: none; stroke: rgb(255, 127, 14); stroke-opacity: 1; stroke-width: 2px;"/></g><g class="trace scatter" style="stroke-miterlimit: 2; opacity: 1;"><path class="js-line" d="M0,44.98L10.78,28.9L54,36.07L65.02,32.47L75.85,36.07L86.42,32.47L97.44,36.07L108.24,32.47L119.07,32.47L129.42,36.07L172.86,36.07L183.9,32.47L194.49,36.07L216.29,32.47L237.68,32.47L248.71,37.84L259.32,32.47L281.12,36.07L302.51,30.64L313.56,32.47L324.12,43.24L345.73,32.47L378.15,36.07L388.97,32.47L410.56,36.07L443,25.22L453.78,36.07L507.81,32.47L529.42,36.07L540.46,32.47L551.03,32.47L562.05,37.84L583.66,32.47L605.07,32.47L615.85,36.07L626.9,36.07L637.49,32.47L648.27,32.47L659.31,36.07L669.9,32.47L680.68,36.07L691.7,32.47L702.29,32.47L734.73,36.07L745.51,36.07L767.12,28.9L778.14,28.79L810.58,37.84L821.15,30.64L831.97,36.07L842.76,32.47L853.78,37.84L864.6,32.5L875.17,30.56L886.19,32.47L897,37.84L907.8,32.47" style="fill: none; stroke: rgb(44, 160, 44); stroke-opacity: 1; stroke-width: 2px;"/></g><g class="trace scatter" style="stroke-miterlimit: 2; opacity: 1;"><path class="js-line" d="M0,36.07L10.78,32.5L54,32.47L65.02,36.07L75.85,32.47L86.42,36.07L97.44,36.07L108.24,32.47L119.07,36.07L129.42,30.64L172.86,36.07L183.9,25.22L194.49,36.07L216.29,30.64L237.68,36.07L248.71,39.71L259.32,36.07L302.51,28.9L313.56,39.82L324.12,32.5L345.73,37.84L378.15,32.47L388.97,36.07L410.56,32.47L421.58,32.47L443,36.07L453.78,28.9L507.81,37.91L529.42,36.07L540.46,32.47L551.03,36.07L562.05,32.47L583.66,36.07L605.07,32.47L615.85,36.07L626.9,32.47L637.49,36.07L648.27,30.64L659.31,36.07L669.9,32.47L680.68,36.07L691.7,32.47L702.29,32.47L734.73,36.07L745.51,32.47L767.12,39.71L778.14,36.07L810.58,30.64L821.15,36.07L831.97,32.47L842.76,43.06L853.78,25.04L864.6,32.47L875.17,36.07L886.19,32.47L897,36.07L907.8,36.07L929,36.07" style="fill: none; stroke: rgb(214, 39, 40); stroke-opacity: 1; stroke-width: 2px;"/></g><g class="trace scatter" style="stroke-miterlimit: 2; opacity: 1;"><path class="js-line" d="M0,36.03L10.78,30.64L54,36.07L65.02,32.47L75.85,36.07L86.42,32.47L97.44,36.07L108.24,30.64L119.07,36.07L129.42,32.47L172.86,36.07L183.9,36.07L194.49,32.47L216.29,32.47L237.68,37.84L248.71,30.56L259.32,27.21L281.12,37.84L302.51,32.47L313.56,36.07L324.12,32.47L345.73,32.47L378.15,36.07L410.56,25.22L421.58,36.07L443,32.47L453.78,32.47L507.81,36.07L529.42,32.47L540.46,36.07L551.03,25.22L562.05,32.47L583.66,36.07L605.07,32.47L615.85,32.47L626.9,37.84L637.49,39.71L648.27,28.9L659.31,32.47L669.9,25.22L680.68,36.07L691.7,32.47L702.29,43.24L734.73,30.64L745.51,36.07L756.55,32.47L767.12,36.07L778.14,32.47L810.58,36.07L821.15,32.47L831.97,41.34L842.76,25.04L853.78,36.07L864.6,32.47L875.17,32.47L886.19,36.07L897,32.47L907.8,28.9L929,32.47" style="fill: none; stroke: rgb(148, 103, 189); stroke-opacity: 1; stroke-width: 2px;"/></g><g class="trace scatter" style="stroke-miterlimit: 2; opacity: 1;"><path class="js-line" d="M0,36.1L10.78,27.21L54,39.71L65.02,30.71L75.85,36.1L86.42,28.79L97.44,32.47L108.24,36.07L119.07,41.63L129.42,30.64L172.86,29L183.9,36.1L194.49,39.6L216.29,28.9L237.68,38.07L248.71,36L259.32,36.07L281.12,32.47L302.51,32.47L313.56,36.07L324.12,32.43L345.73,36.03L378.15,32.47L388.97,32.47L410.56,36.07L421.58,32.47L443,37.84L453.78,32.47L507.81,36.07L529.42,32.47L540.46,36.07L551.03,32.47L562.05,25.22L583.66,43.24L605.07,32.43L615.85,36.07L626.9,32.47L637.49,25.22L648.27,36.07L659.31,36.07L669.9,32.47L680.68,36.1L691.7,30.64L702.29,37.84L734.73,32.47L745.51,36.07L756.55,32.43L767.12,41.63L778.14,32.43L810.58,36.03L821.15,32.47L831.97,37.91L842.76,30.64L853.78,25.4L864.6,36.1L875.17,37.77L886.19,32.47L897,36.1L907.8,32.5L929,36.07" style="fill: none; stroke: rgb(140, 86, 75); stroke-opacity: 1; stroke-width: 2px;"/></g></g></svg><g/><path class="crisp" transform="translate(80,100)" d="M-1,346.5h931" style="fill: none; stroke-width: 1px; stroke: rgb(0, 0, 0); stroke-opacity: 0;"/><path class="crisp" transform="translate(80,100)" d="M-0.5,-1v347" stroke-width="1px" style="fill: none; stroke: rgb(0, 0, 0); stroke-opacity: 0;"/><g/><g transform="translate(80,100)"><g class="xtick" data-bb="6459"><text text-anchor="middle" x="0" y="360" transform="translate(0,0)" style="font-family: 'Open Sans', verdana, arial, sans-serif; font-size: 12px; fill: rgb(68, 68, 68); fill-opacity: 1; visibility: visible; white-space: pre;" data-bb="6449">0</text></g><g class="xtick" data-bb="6460"><text text-anchor="middle" x="0" y="360" transform="translate(108.05,0)" style="font-family: 'Open Sans', verdana, arial, sans-serif; font-size: 12px; fill: rgb(68, 68, 68); fill-opacity: 1; visibility: visible; white-space: pre;" data-bb="6450">5k</text></g><g class="xtick" data-bb="6461"><text text-anchor="middle" x="0" y="360" transform="translate(216.1,0)" style="font-family: 'Open Sans', verdana, arial, sans-serif; font-size: 12px; fill: rgb(68, 68, 68); fill-opacity: 1; visibility: visible; white-space: pre;" data-bb="6451">10k</text></g><g class="xtick" data-bb="6462"><text text-anchor="middle" x="0" y="360" transform="translate(324.15,0)" style="font-family: 'Open Sans', verdana, arial, sans-serif; font-size: 12px; fill: rgb(68, 68, 68); fill-opacity: 1; visibility: visible; white-space: pre;" data-bb="6452">15k</text></g><g class="xtick" data-bb="6463"><text text-anchor="middle" x="0" y="360" transform="translate(432.19,0)" style="font-family: 'Open Sans', verdana, arial, sans-serif; font-size: 12px; fill: rgb(68, 68, 68); fill-opacity: 1; visibility: visible; white-space: pre;" data-bb="6453">20k</text></g><g class="xtick" data-bb="6464"><text text-anchor="middle" x="0" y="360" transform="translate(540.24,0)" style="font-family: 'Open Sans', verdana, arial, sans-serif; font-size: 12px; fill: rgb(68, 68, 68); fill-opacity: 1; visibility: visible; white-space: pre;" data-bb="6454">25k</text></g><g class="xtick" data-bb="6465"><text text-anchor="middle" x="0" y="360" transform="translate(648.29,0)" style="font-family: 'Open Sans', verdana, arial, sans-serif; font-size: 12px; fill: rgb(68, 68, 68); fill-opacity: 1; visibility: visible; white-space: pre;" data-bb="6455">30k</text></g><g class="xtick" data-bb="6466"><text text-anchor="middle" x="0" y="360" transform="translate(756.34,0)" style="font-family: 'Open Sans', verdana, arial, sans-serif; font-size: 12px; fill: rgb(68, 68, 68); fill-opacity: 1; visibility: visible; white-space: pre;" data-bb="6456">35k</text></g><g class="xtick" data-bb="6467"><text text-anchor="middle" x="0" y="360" transform="translate(864.39,0)" style="font-family: 'Open Sans', verdana, arial, sans-serif; font-size: 12px; fill: rgb(68, 68, 68); fill-opacity: 1; visibility: visible; white-space: pre;" data-bb="6457">40k</text></g></g><g transform="translate(80,100)"><g class="ytick" data-bb="6469"><text text-anchor="end" x="-2" y="6" transform="translate(0,325.91)" style="font-family: 'Open Sans', verdana, arial, sans-serif; font-size: 12px; fill: rgb(68, 68, 68); fill-opacity: 1; visibility: visible; white-space: pre;">2k</text></g><g class="ytick" data-bb="6470"><text text-anchor="end" x="-2" y="6" transform="translate(0,257.29)" style="font-family: 'Open Sans', verdana, arial, sans-serif; font-size: 12px; fill: rgb(68, 68, 68); fill-opacity: 1; visibility: visible; white-space: pre;">4k</text></g><g class="ytick" data-bb="6471"><text text-anchor="end" x="-2" y="6" transform="translate(0,188.67)" style="font-family: 'Open Sans', verdana, arial, sans-serif; font-size: 12px; fill: rgb(68, 68, 68); fill-opacity: 1; visibility: visible; white-space: pre;">6k</text></g><g class="ytick" data-bb="6472"><text text-anchor="end" x="-2" y="6" transform="translate(0,120.05)" style="font-family: 'Open Sans', verdana, arial, sans-serif; font-size: 12px; fill: rgb(68, 68, 68); fill-opacity: 1; visibility: visible; white-space: pre;">8k</text></g><g class="ytick" data-bb="6473"><text text-anchor="end" x="-2" y="6" transform="translate(0,51.43)" style="font-family: 'Open Sans', verdana, arial, sans-serif; font-size: 12px; fill: rgb(68, 68, 68); fill-opacity: 1; visibility: visible; white-space: pre;">10k</text></g></g><g/></g><g class="shapelayer"/><g class="pielayer"/><g class="glimages"/><g class="geoimages"/><text class="js-plot-link-container" y="517" text-anchor="end" x="1114" style="font-family: 'Open Sans', Arial, sans-serif; font-size: 12px; fill: rgb(68, 68, 68); pointer-events: all;"><tspan class="js-link-to-tool"/><tspan class="js-link-spacer"/><tspan class="js-sourcelinks"/></text><g class="infolayer"><g class="g-gtitle"><text class="gtitle" x="560.5" y="50" text-anchor="middle" style="font-family: 'Open Sans', verdana, arial, sans-serif; font-size: 17px; fill: rgb(68, 68, 68); opacity: 1; font-weight: normal; white-space: pre; visibility: visible;">Energy footprints of the Levenshtein distance algorithm in different languages</text></g><g class="g-xtitle" data-bb="6458"><text class="xtitle" x="544.5" y="498" text-anchor="middle" style="font-family: 'Open Sans', verdana, arial, sans-serif; font-size: 14px; fill: rgb(68, 68, 68); opacity: 1; font-weight: normal; white-space: pre; visibility: visible;">Execution time (ms)</text></g><g class="g-ytitle" data-bb="6468"><text class="ytitle" transform="rotate(-90,42,273) translate(0, 0)" x="42" y="273" text-anchor="middle" style="font-family: 'Open Sans', verdana, arial, sans-serif; font-size: 14px; fill: rgb(68, 68, 68); opacity: 1; font-weight: normal; white-space: pre; visibility: visible;">Energy consumed</text></g><svg class="legend" x="1028" y="100" width="81" height="124"><rect class="bg" x="0" y="0" width="81" height="124" style="stroke: rgb(68, 68, 68); stroke-opacity: 1; fill: rgb(255, 255, 255); fill-opacity: 1; stroke-width: 0px;"/><g class="groups"><g class="traces" transform="translate(0,14.5)" style="opacity: 1;"><g class="legendfill"/><g class="legendlines"><path class="js-line" d="M5,0h30" style="fill: none; stroke: rgb(31, 119, 180); stroke-opacity: 1; stroke-width: 2px;"/></g><g class="legendsymbols" style="opacity: 1;"><g class="legendpoints"/></g><text class="legendtext" x="40" y="4.680000000000001" style="text-anchor: start; font-family: 'Open Sans', verdana, arial, sans-serif; font-size: 12px; fill: rgb(68, 68, 68); fill-opacity: 1; white-space: pre; visibility: visible;" data-bb="6474">Scala</text><rect class="legendtoggle" pointer-events="all" x="0" y="-9.5" height="19" style="cursor: pointer; fill: rgb(0, 0, 0); fill-opacity: 0;" width="75.9375"/></g><g class="traces" transform="translate(0,33.5)" style="opacity: 1;"><g class="legendfill"/><g class="legendlines"><path class="js-line" d="M5,0h30" style="fill: none; stroke: rgb(255, 127, 14); stroke-opacity: 1; stroke-width: 2px;"/></g><g class="legendsymbols" style="opacity: 1;"><g class="legendpoints"/></g><text class="legendtext" x="40" y="4.680000000000001" style="text-anchor: start; font-family: 'Open Sans', verdana, arial, sans-serif; font-size: 12px; fill: rgb(68, 68, 68); fill-opacity: 1; white-space: pre; visibility: visible;" data-bb="6475">Java</text><rect class="legendtoggle" pointer-events="all" x="0" y="-9.5" height="19" style="cursor: pointer; fill: rgb(0, 0, 0); fill-opacity: 0;" width="75.9375"/></g><g class="traces" transform="translate(0,52.5)" style="opacity: 1;"><g class="legendfill"/><g class="legendlines"><path class="js-line" d="M5,0h30" style="fill: none; stroke: rgb(44, 160, 44); stroke-opacity: 1; stroke-width: 2px;"/></g><g class="legendsymbols" style="opacity: 1;"><g class="legendpoints"/></g><text class="legendtext" x="40" y="4.680000000000001" style="text-anchor: start; font-family: 'Open Sans', verdana, arial, sans-serif; font-size: 12px; fill: rgb(68, 68, 68); fill-opacity: 1; white-space: pre; visibility: visible;" data-bb="6476">C</text><rect class="legendtoggle" pointer-events="all" x="0" y="-9.5" height="19" style="cursor: pointer; fill: rgb(0, 0, 0); fill-opacity: 0;" width="75.9375"/></g><g class="traces" transform="translate(0,71.5)" style="opacity: 1;"><g class="legendfill"/><g class="legendlines"><path class="js-line" d="M5,0h30" style="fill: none; stroke: rgb(214, 39, 40); stroke-opacity: 1; stroke-width: 2px;"/></g><g class="legendsymbols" style="opacity: 1;"><g class="legendpoints"/></g><text class="legendtext" x="40" y="4.680000000000001" style="text-anchor: start; font-family: 'Open Sans', verdana, arial, sans-serif; font-size: 12px; fill: rgb(68, 68, 68); fill-opacity: 1; white-space: pre; visibility: visible;" data-bb="6477">Ocaml</text><rect class="legendtoggle" pointer-events="all" x="0" y="-9.5" height="19" style="cursor: pointer; fill: rgb(0, 0, 0); fill-opacity: 0;" width="75.9375"/></g><g class="traces" transform="translate(0,90.5)" style="opacity: 1;"><g class="legendfill"/><g class="legendlines"><path class="js-line" d="M5,0h30" style="fill: none; stroke: rgb(148, 103, 189); stroke-opacity: 1; stroke-width: 2px;"/></g><g class="legendsymbols" style="opacity: 1;"><g class="legendpoints"/></g><text class="legendtext" x="40" y="4.680000000000001" style="text-anchor: start; font-family: 'Open Sans', verdana, arial, sans-serif; font-size: 12px; fill: rgb(68, 68, 68); fill-opacity: 1; white-space: pre; visibility: visible;" data-bb="6478">Go</text><rect class="legendtoggle" pointer-events="all" x="0" y="-9.5" height="19" style="cursor: pointer; fill: rgb(0, 0, 0); fill-opacity: 0;" width="75.9375"/></g><g class="traces" transform="translate(0,109.5)" style="opacity: 1;"><g class="legendfill"/><g class="legendlines"><path class="js-line" d="M5,0h30" style="fill: none; stroke: rgb(140, 86, 75); stroke-opacity: 1; stroke-width: 2px;"/></g><g class="legendsymbols" style="opacity: 1;"><g class="legendpoints"/></g><text class="legendtext" x="40" y="4.680000000000001" style="text-anchor: start; font-family: 'Open Sans', verdana, arial, sans-serif; font-size: 12px; fill: rgb(68, 68, 68); fill-opacity: 1; white-space: pre; visibility: visible;" data-bb="6479">Col7</text><rect class="legendtoggle" pointer-events="all" x="0" y="-9.5" height="19" width="75.9375" style="cursor: pointer; fill: rgb(0, 0, 0); fill-opacity: 0;"/></g></g></svg></g></svg>